HIERARCHY
ROOT Hips
{
	OFFSET 0.00000 0.00000 0.00000
	CHANNELS 6 Xposition Yposition Zposition Zrotation Yrotation Xrotation 
	JOINT LHipJoint
	{
		OFFSET 0 0 0
		CHANNELS 3 Zrotation Yrotation Xrotation
		JOINT LeftHip
		{
			OFFSET 1.58895 -1.83665 0.71753
			CHANNELS 3 Zrotation Yrotation Xrotation
			JOINT LeftKnee
			{
				OFFSET 2.50528 -6.88321 0.00000
				CHANNELS 3 Zrotation Yrotation Xrotation
				JOINT LeftAnkle
				{
					OFFSET 2.63244 -7.23257 0.00000
					CHANNELS 3 Zrotation Yrotation Xrotation
					JOINT LeftToe
					{
						OFFSET 0.23691 -0.65090 1.72750
						CHANNELS 3 Zrotation Yrotation Xrotation
						End Site
						{
							OFFSET 0.00000 -0.00000 0.92561
						}
					}
				}
			}
		}
	}
	JOINT RHipJoint
	{
		OFFSET 0 0 0
		CHANNELS 3 Zrotation Yrotation Xrotation
		JOINT RightHip
		{
			OFFSET -1.51435 -1.83665 0.71753
			CHANNELS 3 Zrotation Yrotation Xrotation
			JOINT RightKnee
			{
				OFFSET -2.54551 -6.99375 0.00000
				CHANNELS 3 Zrotation Yrotation Xrotation
				JOINT RightAnkle
				{
					OFFSET -2.66027 -7.30903 0.00000
					CHANNELS 3 Zrotation Yrotation Xrotation
					JOINT RightToe
					{
						OFFSET -0.22981 -0.63138 2.03959
						CHANNELS 3 Zrotation Yrotation Xrotation
						End Site
						{
							OFFSET -0.00000 -0.00000 1.07060
						}
					}
				}
			}
		}
	}
	JOINT lowerback
	{
		OFFSET 0 0 0
		CHANNELS 3 Zrotation Yrotation Xrotation
		JOINT Chest
		{
			OFFSET -0.02651 1.86275 -0.11152
			CHANNELS 3 Zrotation Yrotation Xrotation
			JOINT Chest2
			{
				OFFSET 0.01019 1.86224 0.04087
				CHANNELS 3 Zrotation Yrotation Xrotation
				JOINT lowerneck
				{
					OFFSET 0 0 0
					CHANNELS 3 Zrotation Yrotation Xrotation
					JOINT Neck
					{
						OFFSET -0.01926 1.80512 0.08867
						CHANNELS 3 Zrotation Yrotation Xrotation
						JOINT Head
						{
							OFFSET 0.05516 1.76451 -0.38475
							CHANNELS 3 Zrotation Yrotation Xrotation
							End Site
							{
								OFFSET 0.01592 1.82587 -0.14001
							}
						}
					}
				}
				JOINT LeftCollar
				{
					OFFSET 0 0 0
					CHANNELS 3 Zrotation Yrotation Xrotation
					JOINT LeftShoulder
					{
						OFFSET 3.47116 1.51376 0.14491
CHANNELS 3 Zrotation Xrotation Yrotation
						JOINT LeftElbow
						{
OFFSET 0 -4.780950 0.000000
CHANNELS 3 Zrotation Xrotation Yrotation
							JOINT LeftWrist
							{
OFFSET 0 -3.586150 -0.000000
CHANNELS 3 Zrotation Xrotation Yrotation
								JOINT lhand
								{
									OFFSET 0 0 0
CHANNELS 3 Zrotation Xrotation Yrotation
									JOINT LFingers
									{
OFFSET 0 -0.659810 0.000000
CHANNELS 3 Zrotation Xrotation Yrotation
										End Site
										{
OFFSET 0 -0.531960 0.000000
										}
									}
								}
								JOINT LThumb
								{
OFFSET 0 0.000000 0.000000
CHANNELS 3 Zrotation Xrotation Yrotation
									End Site
									{
OFFSET 0 -0.540080 0.540080
									}
								}
							}
						}
					}
				}
				JOINT RightCollar
				{
					OFFSET 0 0 0
					CHANNELS 3 Zrotation Yrotation Xrotation
					JOINT RightShoulder
					{
						OFFSET -3.31725 1.61216 0.35156
CHANNELS 3 Zrotation Xrotation Yrotation
						JOINT RightElbow
						{
OFFSET 0 -4.489130 0.000000
CHANNELS 3 Zrotation Xrotation Yrotation
							JOINT RightWrist
							{
OFFSET 0 -3.705100 0.000000
CHANNELS 3 Zrotation Xrotation Yrotation
								JOINT rhand
								{
									OFFSET 0 0 0
CHANNELS 3 Zrotation Xrotation Yrotation
									JOINT RFingers
									{
OFFSET 0 -0.449140 0.000000
CHANNELS 3 Zrotation Xrotation Yrotation
										End Site
										{
OFFSET 0 -0.362110 0.000000
										}
									}
								}
								JOINT RThumb
								{
OFFSET 0 0.000000 0.000000
CHANNELS 3 Zrotation Xrotation Yrotation
									End Site
									{
OFFSET 0 -0.367630 0.367630
									}
								}
							}
						}
					}
				}
			}
		}
	}
}
MOTION
Frames: 12
Frame Time: 0.008333333333333333
-0.665800 18.681700 5.872700 -1.451700 -2.509900 1.356300 0.000000 0.000000 0.000000 -13.476300 -8.594000 -0.303200 1.156400 6.827300 19.204900 1.609300 6.762500 -27.226600 8.203700 -16.267000 -53.293000 0.000000 0.000000 0.000000 14.845300 -2.300400 6.759400 0.000000 -0.000000 0.000000 -0.736700 -2.207400 -17.158400 -0.013800 0.759200 -2.086500 -0.776800 1.218500 1.714900 0.022400 1.600700 -2.633300 0.379500 0.819300 -3.690800 -0.530400 -2.363100 -11.488600 3.514600 -4.042100 22.588000 0.835200 -1.571100 9.056900 -0.000000 -0.000000 0.000000 -1.227300 13.817800 -27.529800 20.987100 -31.813300 6.043200 8.362700 10.774000 26.017200 0.000000 0.000000 0.000000 -7.125000 0.000000 0.000000 -12.919900 4.280900 -12.240900 -0.000000 -0.000000 0.000000 -0.160000 19.534300 26.678000 -24.219200 -35.395200 -7.833200 -7.824700 22.811400 29.007400 0.000000 0.000000 0.000000 7.125000 0.000000 -0.000000 25.307100 57.366200 -8.008900
-0.666225 18.682024 5.870431 -1.427009 -2.487595 1.341238 0.000000 0.000000 0.000000 -13.509619 -8.632814 -0.259182 1.151754 6.814136 19.165959 1.609576 6.821909 -27.264904 8.216613 -16.276309 -53.339247 0.000000 0.000000 0.000000 14.812643 -2.323310 6.762565 0.000000 0.000000 0.000000 -0.737854 -2.169628 -17.152409 -0.010927 0.674916 -1.854732 -0.797581 1.217609 1.714842 0.012406 1.598413 -2.612388 0.381248 0.818408 -3.669402 -0.521392 -2.370349 -11.508919 3.504373 -4.050906 22.565209 0.828954 -1.575574 9.052626 0.000000 0.000000 0.000000 -1.235577 13.779253 -27.491959 20.947446 -31.766995 6.022273 8.348811 10.817690 26.081561 0.000000 0.000000 0.000000 -7.125000 0.000000 0.000000 -12.929944 4.219453 -12.266075 0.000000 0.000000 0.000000 -0.172018 19.553126 26.740114 -24.264458 -35.442632 -7.859365 -7.837591 22.779977 29.064557 0.000000 0.000000 0.000000 7.125000 0.000000 0.000000 25.337075 57.420062 -8.052689
-0.666053 18.682647 5.868259 -1.415383 -2.472640 1.343436 0.000000 0.000000 0.000000 -13.525186 -8.665380 -0.253247 1.149662 6.808186 19.148306 1.604061 6.843176 -27.239343 8.216117 -16.275926 -53.337380 0.000000 0.000000 0.000000 14.797744 -2.334194 6.749362 0.000000 0.000000 0.000000 -0.736504 -2.159633 -17.132506 -0.009560 0.630771 -1.733282 -0.784016 1.214113 1.705557 -0.009362 1.593667 -2.605713 0.351826 0.815312 -3.656099 -0.537855 -2.315500 -11.478133 3.548116 -3.978563 22.524278 0.855055 -1.539430 9.032312 0.000000 0.000000 0.000000 -1.203297 13.798736 -27.479323 20.942175 -31.760837 6.019489 8.425742 10.858007 26.168027 0.000000 0.000000 0.000000 -7.125000 0.000000 0.000000 -12.886280 4.126655 -12.245293 0.000000 0.000000 0.000000 -0.144962 19.562585 26.751326 -24.266973 -35.445274 -7.860863 -7.920730 22.774980 29.051733 0.000000 0.000000 0.000000 7.125000 0.000000 0.000000 25.244732 57.426097 -8.024539
-0.665429 18.683122 5.866907 -1.403605 -2.465346 1.353003 0.000000 0.000000 0.000000 -13.535295 -8.654943 -0.269464 1.147488 6.801987 19.130057 1.594575 6.829930 -27.164457 8.226190 -16.283115 -53.373373 0.000000 0.000000 0.000000 14.783078 -2.335071 6.729026 0.000000 0.000000 0.000000 -0.734940 -2.175257 -17.123253 -0.009145 0.618714 -1.700188 -0.780301 1.212407 1.690667 -0.022782 1.591236 -2.607714 0.336378 0.813781 -3.649232 -0.655757 -2.118069 -11.411422 3.639930 -3.695734 22.496050 0.938712 -1.408063 9.007107 0.000000 0.000000 0.000000 -1.185782 13.822017 -27.460176 20.921987 -31.737215 6.008836 8.481929 10.863609 26.258664 0.000000 0.000000 0.000000 -7.125000 0.000000 0.000000 -12.855281 4.031902 -12.237422 0.000000 0.000000 0.000000 -0.126035 19.568794 26.731682 -24.250694 -35.428227 -7.851398 -7.957294 22.759327 28.942032 0.000000 0.000000 0.000000 7.125000 0.000000 0.000000 25.126282 57.335395 -7.927600
-0.665399 18.683694 5.866601 -1.387850 -2.472499 1.352819 0.000000 0.000000 0.000000 -13.561724 -8.673844 -0.248972 1.146013 6.797540 19.117017 1.597350 6.860493 -27.203092 8.241350 -16.293894 -53.427466 0.000000 0.000000 0.000000 14.768626 -2.327195 6.727079 0.000000 0.000000 0.000000 -0.732326 -2.229436 -17.121601 -0.012759 0.728072 -2.000824 -0.790488 1.215758 1.656365 -0.029544 1.595446 -2.588522 0.335986 0.815972 -3.610134 -0.814621 -1.982026 -11.418379 3.778242 -3.503433 22.498140 1.034129 -1.316296 9.009624 0.000000 0.000000 0.000000 -1.064316 13.895074 -27.834439 20.967604 -31.790504 6.032886 8.642290 10.383396 26.187034 0.000000 0.000000 0.000000 -7.125000 0.000000 0.000000 -12.757708 4.084584 -12.126710 0.000000 0.000000 0.000000 -0.121911 19.555937 26.722519 -24.242636 -35.419739 -7.846721 -8.029797 22.757207 28.834717 0.000000 0.000000 0.000000 7.125000 0.000000 0.000000 24.974281 57.254157 -7.825510
-0.665700 18.684471 5.865112 -1.357904 -2.477576 1.368760 0.000000 0.000000 0.000000 -13.596455 -8.696830 -0.254932 1.144082 6.792223 19.101270 1.595205 6.951150 -27.244174 8.262953 -16.309318 -53.504436 0.000000 0.000000 0.000000 14.738321 -2.316853 6.707215 0.000000 0.000000 0.000000 -0.733924 -2.229669 -17.138582 -0.013435 0.748633 -2.057454 -0.824891 1.222383 1.626355 -0.040189 1.602971 -2.583102 0.344706 0.820412 -3.588350 -0.621545 -1.955669 -11.315196 3.661927 -3.473663 22.373597 0.965957 -1.301517 8.941124 0.000000 0.000000 0.000000 -0.840307 14.032468 -28.489167 21.050095 -31.886748 6.076406 8.875199 9.728539 26.124564 0.000000 0.000000 0.000000 -7.125000 0.000000 0.000000 -12.616834 4.120225 -11.977241 0.000000 0.000000 0.000000 -0.116410 19.566990 26.725994 -24.247469 -35.424857 -7.849517 -7.969618 22.699824 28.825235 0.000000 0.000000 0.000000 7.125000 0.000000 0.000000 25.027182 57.233062 -7.830514
-0.665604 18.684796 5.862139 -1.337709 -2.479146 1.377253 0.000000 0.000000 0.000000 -13.613157 -8.693169 -0.281241 1.144279 6.792640 19.102473 1.590035 6.959119 -27.212916 8.256909 -16.304969 -53.482749 0.000000 0.000000 0.000000 14.715667 -2.308696 6.687518 0.000000 0.000000 0.000000 -0.732890 -2.226689 -17.126002 -0.012659 0.726370 -1.996243 -0.854556 1.230626 1.667797 -0.042140 1.612501 -2.606422 0.357467 0.826161 -3.636838 -0.554481 -1.952544 -11.272161 3.602324 -3.467762 22.346128 0.935412 -1.300319 8.921204 0.000000 0.000000 0.000000 -0.970774 14.026817 -28.041321 21.035623 -31.869901 6.068758 8.667118 10.253808 26.211433 0.000000 0.000000 0.000000 -7.125000 0.000000 0.000000 -12.743514 4.057933 -12.119083 0.000000 0.000000 0.000000 -0.096970 19.591600 26.648129 -24.227656 -35.404066 -7.838047 -7.866041 22.731502 28.818473 0.000000 0.000000 0.000000 7.125000 0.000000 0.000000 25.125163 57.205268 -7.846746
-0.665281 18.685046 5.859833 -1.351936 -2.484357 1.373220 0.000000 0.000000 0.000000 -13.596640 -8.684730 -0.293893 1.146213 6.798267 19.119008 1.587030 6.925124 -27.170666 8.229634 -16.285587 -53.385589 0.000000 0.000000 0.000000 14.732773 -2.301952 6.686230 0.000000 0.000000 0.000000 -0.732867 -2.231482 -17.128335 -0.011962 0.705633 -1.939209 -0.860510 1.236635 1.700619 -0.026400 1.620548 -2.615297 0.375690 0.830624 -3.665323 -0.778753 -1.971189 -11.368104 3.744703 -3.485378 22.449747 1.019047 -1.309672 8.981761 0.000000 0.000000 0.000000 -1.184806 13.949097 -27.364849 20.988725 -31.815212 6.044006 8.426503 10.958878 26.316721 0.000000 0.000000 0.000000 -7.125000 0.000000 0.000000 -12.889931 3.981155 -12.284661 0.000000 0.000000 0.000000 -0.110293 19.613541 26.616332 -24.221486 -35.397659 -7.834503 -7.868809 22.786849 28.769691 0.000000 0.000000 0.000000 7.125000 0.000000 0.000000 25.086334 57.162008 -7.806839
-0.665102 18.684514 5.857447 -1.413286 -2.489483 1.371714 0.000000 0.000000 0.000000 -13.528070 -8.693571 -0.306848 1.148946 6.806146 19.142244 1.588546 6.900035 -27.165302 8.197996 -16.262928 -53.272727 0.000000 0.000000 0.000000 14.801928 -2.296326 6.688942 0.000000 0.000000 0.000000 -0.735839 -2.207352 -17.148907 -0.011800 0.701095 -1.926688 -0.804881 1.239551 1.694038 -0.004325 1.627271 -2.594295 0.367373 0.832667 -3.638971 -0.792946 -1.982429 -11.437297 3.722295 -3.494671 22.487054 1.012208 -1.316095 9.007610 0.000000 0.000000 0.000000 -1.216507 13.870705 -27.263700 20.951575 -31.771790 6.024455 8.452391 11.025330 26.318384 0.000000 0.000000 0.000000 -7.125000 0.000000 0.000000 -12.874592 3.976670 -12.270279 0.000000 0.000000 0.000000 -0.137193 19.597963 26.653524 -24.228543 -35.405036 -7.838609 -7.852177 22.757883 28.742294 0.000000 0.000000 0.000000 7.125000 0.000000 0.000000 25.082642 57.133983 -7.788315
-0.665088 18.684445 5.855264 -1.429506 -2.509140 1.376672 0.000000 0.000000 0.000000 -13.508555 -8.688058 -0.326444 1.151524 6.813449 19.163924 1.592955 6.888842 -27.189388 8.197994 -16.262939 -53.272748 0.000000 0.000000 0.000000 14.818034 -2.272052 6.680435 0.000000 0.000000 0.000000 -0.735753 -2.189683 -17.139043 -0.009976 0.645927 -1.774927 -0.784833 1.245380 1.671325 -0.000324 1.636073 -2.570071 0.360802 0.836375 -3.600679 -0.737892 -1.979622 -11.480804 3.650348 -3.485441 22.488099 0.979114 -1.314104 9.013487 0.000000 0.000000 0.000000 -1.215039 13.784009 -27.266414 20.916980 -31.731297 6.006217 8.471433 10.999904 26.223961 0.000000 0.000000 0.000000 -7.125000 0.000000 0.000000 -12.860638 4.067005 -12.234162 0.000000 0.000000 0.000000 -0.141323 19.563889 26.681746 -24.242061 -35.419195 -7.846432 -7.694891 22.667122 28.834595 0.000000 0.000000 0.000000 7.125000 0.000000 0.000000 25.307209 57.184014 -7.895523
-0.664276 18.684647 5.853394 -1.404316 -2.519383 1.383137 0.000000 0.000000 0.000000 -13.537279 -8.682223 -0.343726 1.152206 6.815465 19.169847 1.593553 6.909616 -27.206670 8.232224 -16.287375 -53.394727 0.000000 0.000000 0.000000 14.789721 -2.254557 6.660902 0.000000 0.000000 0.000000 -0.732176 -2.222498 -17.116578 -0.010283 0.654421 -1.798311 -0.789606 1.254154 1.686185 -0.013747 1.647024 -2.581157 0.348611 0.841836 -3.620476 -0.732743 -1.972058 -11.485552 3.636751 -3.473881 22.516854 0.974953 -1.309170 9.023667 0.000000 0.000000 0.000000 -1.213750 13.768831 -27.234288 20.889348 -31.699018 5.991715 8.479077 10.997968 26.277727 0.000000 0.000000 0.000000 -7.125000 0.000000 0.000000 -12.857582 4.013667 -12.244170 0.000000 0.000000 0.000000 -0.143717 19.576629 26.721408 -24.255590 -35.433379 -7.854272 -7.597392 22.554824 28.919901 0.000000 0.000000 0.000000 7.125000 0.000000 0.000000 25.467576 57.240117 -7.985269
-0.663872 18.685131 5.851236 -1.408148 -2.507678 1.399419 0.000000 0.000000 0.000000 -13.529356 -8.690304 -0.366293 1.151741 6.814051 19.165698 1.593826 6.934955 -27.224566 8.253628 -16.302648 -53.471257 0.000000 0.000000 0.000000 14.795745 -2.256576 6.629364 0.000000 0.000000 0.000000 -0.727675 -2.265995 -17.089263 -0.012577 0.723907 -1.989354 -0.788241 1.249583 1.687637 -0.000271 1.641332 -2.600619 0.361675 0.839267 -3.641717 -0.774337 -1.971464 -11.460077 3.646916 -3.467618 22.542515 0.986386 -1.308618 9.028408 0.000000 0.000000 0.000000 -1.242790 13.782635 -27.167912 20.872608 -31.679319 5.982875 8.453878 11.033333 26.379492 0.000000 0.000000 0.000000 -7.125000 0.000000 0.000000 -12.875416 3.916784 -12.285866 0.000000 0.000000 0.000000 -0.199575 19.603163 26.811809 -24.256821 -35.434606 -7.854916 -7.637430 22.506941 28.971418 0.000000 0.000000 0.000000 7.125000 0.000000 0.000000 25.466353 57.294643 -8.018997
